<svg width="129" height="34" viewBox="0 0 129 34" fill="none" xmlns="http://www.w3.org/2000/svg">
<path d="M5.63093 7.88866C5.63093 8.91134 6.01031 9.65361 6.76907 10.1155C7.52784 10.6763 9.14433 11.2536 11.6186 11.8474C14.2247 12.4742 16.1217 13.332 17.3093 14.4206C18.5299 15.5093 19.1402 17.0763 19.1402 19.1216C19.1402 21.266 18.332 22.9979 16.7155 24.3175C15.132 25.6371 13.0536 26.2969 10.4804 26.2969C6.75258 26.2969 3.38763 24.9773 0.385567 22.3381L2.95876 19.2701C5.46598 21.4144 8.00619 22.4866 10.5794 22.4866C11.866 22.4866 12.9052 22.2062 13.6969 21.6454C14.4887 21.0515 14.8845 20.2928 14.8845 19.3691C14.8845 18.4454 14.5217 17.7196 13.7959 17.1918C13.1031 16.6639 11.8495 16.1856 10.0351 15.7567C6.90103 15.0309 4.72371 14.1732 3.50309 13.1835C2.08454 12.0948 1.37526 10.4289 1.37526 8.18557C1.37526 6.00825 2.16701 4.30928 3.75052 3.08866C5.33402 1.83505 7.36289 1.20825 9.83711 1.20825C13.1691 1.20825 16.0227 2.18144 18.3979 4.12783L16.2206 7.19588C15.4948 6.53608 14.5217 6.00825 13.301 5.61237C12.0804 5.1835 10.8763 4.96907 9.68866 4.96907C8.46804 4.96907 7.47835 5.23299 6.71959 5.76082C5.99381 6.25567 5.63093 6.96495 5.63093 7.88866ZM27.5242 26H23.6644V0.317524H27.5242V15.4103L34.9963 7.59175H39.9943L33.0169 14.866L40.5386 26H35.7881L30.3448 17.934L27.5242 20.7546V26ZM56.6866 7.59175H60.5959V26H56.6866V22.6351C56.0598 23.7567 55.1856 24.6474 54.0639 25.3072C52.9753 25.967 51.8041 26.2969 50.5505 26.2969C48.4392 26.2969 46.7567 25.6536 45.5031 24.367C44.2495 23.0804 43.6227 21.2495 43.6227 18.8742V7.59175H47.4825V17.6866C47.4825 21.0845 48.8845 22.7835 51.6887 22.7835C53.1072 22.7835 54.2948 22.3216 55.2515 21.3979C56.2082 20.4742 56.6866 19.1876 56.6866 17.5381V7.59175ZM70.0398 26H66.18V7.59175H70.0398V10.9072C70.6666 9.78557 71.5243 8.91134 72.613 8.28454C73.7346 7.62474 74.9223 7.29485 76.1759 7.29485C78.3202 7.29485 80.0192 7.93814 81.2728 9.22474C82.5264 10.5113 83.1532 12.3423 83.1532 14.7175V26H79.2439V15.9052C79.2439 12.5072 77.8418 10.8082 75.0377 10.8082C73.6192 10.8082 72.4315 11.2701 71.4748 12.1938C70.5181 13.0845 70.0398 14.3546 70.0398 16.0041V26ZM107.393 16.6969C107.393 19.468 106.535 21.7608 104.82 23.5753C103.104 25.3897 101.059 26.2969 98.6837 26.2969C96.3414 26.2969 94.2466 25.2742 92.3992 23.2289V26H88.5394V0.317524H92.3992V10.8082C93.9497 8.46598 95.9456 7.29485 98.3868 7.29485C100.927 7.29485 103.055 8.16907 104.77 9.91752C106.519 11.666 107.393 13.9258 107.393 16.6969ZM97.793 22.833C99.3765 22.833 100.713 22.2722 101.801 21.1505C102.923 19.9959 103.484 18.5443 103.484 16.7959C103.484 15.0474 102.923 13.5959 101.801 12.4412C100.713 11.2866 99.393 10.7093 97.8425 10.7093C96.2919 10.7093 94.9889 11.3031 93.9332 12.4907C92.8775 13.6454 92.3497 15.0804 92.3497 16.7959C92.3497 18.5443 92.8775 19.9959 93.9332 21.1505C94.9889 22.2722 96.2755 22.833 97.793 22.833ZM109.513 31.4928L111.295 28.3753C112.119 29.134 112.961 29.5134 113.818 29.5134C114.643 29.5134 115.336 29.2 115.897 28.5732C116.457 27.9794 116.738 27.3031 116.738 26.5443C116.738 26.2474 114.247 19.9299 109.266 7.59175H113.422L118.965 21.1505L124.457 7.59175H128.614L119.657 29.4639C119.13 30.6515 118.371 31.5918 117.381 32.2845C116.391 32.9773 115.303 33.3237 114.115 33.3237C112.4 33.3237 110.866 32.7134 109.513 31.4928Z" fill="#141414"/>
</svg>
